{
	"asset":{
		"generator":"Khronos glTF Blender I/O v5.0.21",
		"version":"2.0"
	},
	"scene":0,
	"scenes":[
		{
			"name":"Scene",
			"nodes":[
				0
			]
		}
	],
	"nodes":[
		{
			"mesh":0,
			"name":"Sphere"
		}
	],
	"materials":[
		{
			"alphaMode":"MASK",
			"doubleSided":true,
			"name":"Material_0",
			"pbrMetallicRoughness":{
				"baseColorFactor":[
					0.5879999995231628,
					0.5879999995231628,
					0.5879999995231628,
					1
				],
				"baseColorTexture":{
					"index":0
				}
			}
		},
		{
			"alphaMode":"MASK",
			"doubleSided":true,
			"name":"Material_3",
			"pbrMetallicRoughness":{
				"baseColorFactor":[
					0.5879999995231628,
					0.5879999995231628,
					0.5879999995231628,
					1
				],
				"baseColorTexture":{
					"index":1
				}
			}
		},
		{
			"name":"Material_1",
			"pbrMetallicRoughness":{
				"baseColorFactor":[
					0.5879999995231628,
					0.5879999995231628,
					0.5879999995231628,
					1
				]
			}
		},
		{
			"name":"Material_4",
			"pbrMetallicRoughness":{
				"baseColorFactor":[
					0.5879999995231628,
					0.5879999995231628,
					0.5879999995231628,
					1
				]
			}
		},
		{
			"name":"Material_5",
			"pbrMetallicRoughness":{
				"baseColorFactor":[
					0.5879999995231628,
					0.5879999995231628,
					0.5879999995231628,
					1
				]
			}
		},
		{
			"name":"Material_6",
			"pbrMetallicRoughness":{
				"baseColorFactor":[
					0.5879999995231628,
					0.5879999995231628,
					0.5879999995231628,
					1
				]
			}
		},
		{
			"name":"Material_7",
			"pbrMetallicRoughness":{
				"baseColorFactor":[
					0.5879999995231628,
					0.5879999995231628,
					0.5879999995231628,
					1
				]
			}
		},
		{
			"name":"Material_8",
			"pbrMetallicRoughness":{
				"baseColorFactor":[
					0.5879999995231628,
					0.5879999995231628,
					0.5879999995231628,
					1
				]
			}
		},
		{
			"name":"Material_9",
			"pbrMetallicRoughness":{
				"baseColorFactor":[
					0.5879999995231628,
					0.5879999995231628,
					0.5879999995231628,
					1
				]
			}
		},
		{
			"name":"Material_10",
			"pbrMetallicRoughness":{
				"baseColorFactor":[
					0.5879999995231628,
					0.5879999995231628,
					0.5879999995231628,
					1
				]
			}
		},
		{
			"name":"Material_11",
			"pbrMetallicRoughness":{
				"baseColorFactor":[
					0.5879999995231628,
					0.5879999995231628,
					0.5879999995231628,
					1
				]
			}
		},
		{
			"name":"Material_12",
			"pbrMetallicRoughness":{
				"baseColorFactor":[
					0.5879999995231628,
					0.5879999995231628,
					0.5879999995231628,
					1
				]
			}
		},
		{
			"name":"Material_2",
			"pbrMetallicRoughness":{
				"baseColorFactor":[
					0.5879999995231628,
					0.5879999995231628,
					0.5879999995231628,
					1
				],
				"metallicFactor":0
			}
		},
		{
			"name":"Material_13",
			"pbrMetallicRoughness":{
				"baseColorFactor":[
					0.5879999995231628,
					0.5879999995231628,
					0.5879999995231628,
					1
				]
			}
		},
		{
			"name":"Material_14",
			"pbrMetallicRoughness":{
				"baseColorFactor":[
					0.5879999995231628,
					0.5879999995231628,
					0.5879999995231628,
					1
				]
			}
		},
		{
			"name":"Material_15",
			"pbrMetallicRoughness":{
				"baseColorFactor":[
					0.5879999995231628,
					0.5879999995231628,
					0.5879999995231628,
					1
				]
			}
		},
		{
			"name":"Material_16",
			"pbrMetallicRoughness":{
				"baseColorFactor":[
					0.5879999995231628,
					0.5879999995231628,
					0.5879999995231628,
					1
				]
			}
		},
		{
			"name":"Material_17",
			"pbrMetallicRoughness":{
				"baseColorFactor":[
					0.5879999995231628,
					0.5879999995231628,
					0.5879999995231628,
					1
				]
			}
		},
		{
			"name":"Material_18",
			"pbrMetallicRoughness":{
				"baseColorFactor":[
					0.5879999995231628,
					0.5879999995231628,
					0.5879999995231628,
					1
				]
			}
		},
		{
			"name":"Material_19",
			"pbrMetallicRoughness":{
				"baseColorFactor":[
					0.5879999995231628,
					0.5879999995231628,
					0.5879999995231628,
					1
				]
			}
		},
		{
			"alphaMode":"MASK",
			"doubleSided":true,
			"name":"Material_20",
			"pbrMetallicRoughness":{
				"baseColorFactor":[
					0.5879999995231628,
					0.5879999995231628,
					0.5879999995231628,
					1
				],
				"baseColorTexture":{
					"index":2
				}
			}
		},
		{
			"name":"Material_21",
			"pbrMetallicRoughness":{
				"baseColorFactor":[
					0.5879999995231628,
					0.5879999995231628,
					0.5879999995231628,
					1
				]
			}
		},
		{
			"name":"Material_22",
			"pbrMetallicRoughness":{
				"baseColorFactor":[
					0.5879999995231628,
					0.5879999995231628,
					0.5879999995231628,
					1
				]
			}
		},
		{
			"name":"Material_23",
			"pbrMetallicRoughness":{
				"baseColorFactor":[
					0.5879999995231628,
					0.5879999995231628,
					0.5879999995231628,
					1
				]
			}
		},
		{
			"name":"Material_24",
			"pbrMetallicRoughness":{
				"baseColorFactor":[
					0.5879999995231628,
					0.5879999995231628,
					0.5879999995231628,
					1
				]
			}
		}
	],
	"meshes":[
		{
			"name":"Sphere",
			"primitives":[
				{
					"attributes":{
						"POSITION":0,
						"NORMAL":1,
						"TEXCOORD_0":2
					},
					"indices":3
				},
				{
					"attributes":{
						"POSITION":4,
						"NORMAL":5,
						"TEXCOORD_0":6
					},
					"indices":7,
					"material":0
				},
				{
					"attributes":{
						"POSITION":8,
						"NORMAL":9,
						"TEXCOORD_0":10
					},
					"indices":11,
					"material":1
				},
				{
					"attributes":{
						"POSITION":12,
						"NORMAL":13,
						"TEXCOORD_0":14
					},
					"indices":15,
					"material":2
				},
				{
					"attributes":{
						"POSITION":16,
						"NORMAL":17,
						"TEXCOORD_0":18
					},
					"indices":19,
					"material":3
				},
				{
					"attributes":{
						"POSITION":20,
						"NORMAL":21,
						"TEXCOORD_0":22
					},
					"indices":23,
					"material":4
				},
				{
					"attributes":{
						"POSITION":24,
						"NORMAL":25,
						"TEXCOORD_0":26
					},
					"indices":27,
					"material":5
				},
				{
					"attributes":{
						"POSITION":28,
						"NORMAL":29,
						"TEXCOORD_0":30
					},
					"indices":31,
					"material":6
				},
				{
					"attributes":{
						"POSITION":32,
						"NORMAL":33,
						"TEXCOORD_0":34
					},
					"indices":35,
					"material":7
				},
				{
					"attributes":{
						"POSITION":36,
						"NORMAL":37,
						"TEXCOORD_0":38
					},
					"indices":39,
					"material":8
				},
				{
					"attributes":{
						"POSITION":40,
						"NORMAL":41,
						"TEXCOORD_0":42
					},
					"indices":43,
					"material":9
				},
				{
					"attributes":{
						"POSITION":44,
						"NORMAL":45,
						"TEXCOORD_0":46
					},
					"indices":47,
					"material":10
				},
				{
					"attributes":{
						"POSITION":48,
						"NORMAL":49,
						"TEXCOORD_0":50
					},
					"indices":51,
					"material":11
				},
				{
					"attributes":{
						"POSITION":52,
						"NORMAL":53,
						"TEXCOORD_0":54
					},
					"indices":55,
					"material":12
				},
				{
					"attributes":{
						"POSITION":56,
						"NORMAL":57,
						"TEXCOORD_0":58
					},
					"indices":59,
					"material":13
				},
				{
					"attributes":{
						"POSITION":60,
						"NORMAL":61,
						"TEXCOORD_0":62
					},
					"indices":63,
					"material":14
				},
				{
					"attributes":{
						"POSITION":64,
						"NORMAL":65,
						"TEXCOORD_0":66
					},
					"indices":67,
					"material":15
				},
				{
					"attributes":{
						"POSITION":68,
						"NORMAL":69,
						"TEXCOORD_0":70
					},
					"indices":71,
					"material":16
				},
				{
					"attributes":{
						"POSITION":72,
						"NORMAL":73,
						"TEXCOORD_0":74
					},
					"indices":75,
					"material":17
				},
				{
					"attributes":{
						"POSITION":76,
						"NORMAL":77,
						"TEXCOORD_0":78
					},
					"indices":79,
					"material":18
				},
				{
					"attributes":{
						"POSITION":80,
						"NORMAL":81,
						"TEXCOORD_0":82
					},
					"indices":75,
					"material":19
				},
				{
					"attributes":{
						"POSITION":83,
						"NORMAL":84,
						"TEXCOORD_0":85
					},
					"indices":86,
					"material":20
				},
				{
					"attributes":{
						"POSITION":87,
						"NORMAL":88,
						"TEXCOORD_0":89
					},
					"indices":90,
					"material":21
				},
				{
					"attributes":{
						"POSITION":91,
						"NORMAL":92,
						"TEXCOORD_0":93
					},
					"indices":94,
					"material":22
				},
				{
					"attributes":{
						"POSITION":95,
						"NORMAL":96,
						"TEXCOORD_0":97
					},
					"indices":98,
					"material":23
				},
				{
					"attributes":{
						"POSITION":99,
						"NORMAL":100,
						"TEXCOORD_0":101
					},
					"indices":102,
					"material":24
				}
			]
		}
	],
	"textures":[
		{
			"sampler":0,
			"source":0
		},
		{
			"sampler":0,
			"source":0
		},
		{
			"sampler":0,
			"source":0
		}
	],
	"images":[
		{
			"mimeType":"image/png",
			"name":"Image",
			"uri":"Image.png"
		}
	],
	"accessors":[
		{
			"bufferView":0,
			"componentType":5126,
			"count":1984,
			"max":[
				0.5000001192092896,
				1.5,
				0.49999985098838806
			],
			"min":[
				-0.4999998211860657,
				0.5,
				-0.5000001788139343
			],
			"type":"VEC3"
		},
		{
			"bufferView":1,
			"componentType":5126,
			"count":1984,
			"type":"VEC3"
		},
		{
			"bufferView":2,
			"componentType":5126,
			"count":1984,
			"type":"VEC2"
		},
		{
			"bufferView":3,
			"componentType":5123,
			"count":2880,
			"type":"SCALAR"
		},
		{
			"bufferView":4,
			"componentType":5126,
			"count":24162,
			"max":[
				19.027307510375977,
				7.059170246124268,
				9.386460304260254
			],
			"min":[
				-19.17446517944336,
				-0.7937870025634766,
				-9.461085319519043
			],
			"type":"VEC3"
		},
		{
			"bufferView":5,
			"componentType":5126,
			"count":24162,
			"type":"VEC3"
		},
		{
			"bufferView":6,
			"componentType":5126,
			"count":24162,
			"type":"VEC2"
		},
		{
			"bufferView":7,
			"componentType":5123,
			"count":94308,
			"type":"SCALAR"
		},
		{
			"bufferView":8,
			"componentType":5126,
			"count":3932,
			"max":[
				28.66419792175293,
				2.344682216644287,
				6.948517799377441
			],
			"min":[
				-28.87453842163086,
				1.3891034126281738,
				-7.001148223876953
			],
			"type":"VEC3"
		},
		{
			"bufferView":9,
			"componentType":5126,
			"count":3932,
			"type":"VEC3"
		},
		{
			"bufferView":10,
			"componentType":5126,
			"count":3932,
			"type":"VEC2"
		},
		{
			"bufferView":11,
			"componentType":5123,
			"count":10416,
			"type":"SCALAR"
		},
		{
			"bufferView":12,
			"componentType":5126,
			"count":9848,
			"max":[
				28.583845138549805,
				1.8196839094161987,
				6.683576583862305
			],
			"min":[
				-28.805625915527344,
				-0.04870259761810303,
				-6.684941291809082
			],
			"type":"VEC3"
		},
		{
			"bufferView":13,
			"componentType":5126,
			"count":9848,
			"type":"VEC3"
		},
		{
			"bufferView":14,
			"componentType":5126,
			"count":9848,
			"type":"VEC2"
		},
		{
			"bufferView":15,
			"componentType":5123,
			"count":53064,
			"type":"SCALAR"
		},
		{
			"bufferView":16,
			"componentType":5126,
			"count":2259,
			"max":[
				42.250701904296875,
				23.60722541809082,
				3.870492696762085
			],
			"min":[
				-42.37832260131836,
				1.3425567150115967,
				-3.9471542835235596
			],
			"type":"VEC3"
		},
		{
			"bufferView":17,
			"componentType":5126,
			"count":2259,
			"type":"VEC3"
		},
		{
			"bufferView":18,
			"componentType":5126,
			"count":2259,
			"type":"VEC2"
		},
		{
			"bufferView":19,
			"componentType":5123,
			"count":12258,
			"type":"SCALAR"
		},
		{
			"bufferView":20,
			"componentType":5126,
			"count":1086,
			"max":[
				56.11158752441406,
				41.867366790771484,
				33.37384796142578
			],
			"min":[
				-55.98737716674805,
				-3.8460092544555664,
				-34.212371826171875
			],
			"type":"VEC3"
		},
		{
			"bufferView":21,
			"componentType":5126,
			"count":1086,
			"type":"VEC3"
		},
		{
			"bufferView":22,
			"componentType":5126,
			"count":1086,
			"type":"VEC2"
		},
		{
			"bufferView":23,
			"componentType":5123,
			"count":2388,
			"type":"SCALAR"
		},
		{
			"bufferView":24,
			"componentType":5126,
			"count":11383,
			"max":[
				30.52698516845703,
				39.62814712524414,
				8.746562004089355
			],
			"min":[
				-30.733156204223633,
				6.633981227874756,
				-8.746670722961426
			],
			"type":"VEC3"
		},
		{
			"bufferView":25,
			"componentType":5126,
			"count":11383,
			"type":"VEC3"
		},
		{
			"bufferView":26,
			"componentType":5126,
			"count":11383,
			"type":"VEC2"
		},
		{
			"bufferView":27,
			"componentType":5123,
			"count":30504,
			"type":"SCALAR"
		},
		{
			"bufferView":28,
			"componentType":5126,
			"count":5063,
			"max":[
				42.3231315612793,
				39.28433609008789,
				18.955137252807617
			],
			"min":[
				-42.41484832763672,
				6.770724296569824,
				-18.89177131652832
			],
			"type":"VEC3"
		},
		{
			"bufferView":29,
			"componentType":5126,
			"count":5063,
			"type":"VEC3"
		},
		{
			"bufferView":30,
			"componentType":5126,
			"count":5063,
			"type":"VEC2"
		},
		{
			"bufferView":31,
			"componentType":5123,
			"count":17628,
			"type":"SCALAR"
		},
		{
			"bufferView":32,
			"componentType":5126,
			"count":3538,
			"max":[
				30.640779495239258,
				6.931830406188965,
				8.771400451660156
			],
			"min":[
				-30.8679256439209,
				0,
				-8.708304405212402
			],
			"type":"VEC3"
		},
		{
			"bufferView":33,
			"componentType":5126,
			"count":3538,
			"type":"VEC3"
		},
		{
			"bufferView":34,
			"componentType":5126,
			"count":3538,
			"type":"VEC2"
		},
		{
			"bufferView":35,
			"componentType":5123,
			"count":8448,
			"type":"SCALAR"
		},
		{
			"bufferView":36,
			"componentType":5126,
			"count":23,
			"max":[
				42.32373046875,
				12.966398239135742,
				18.932880401611328
			],
			"min":[
				-42.50083923339844,
				-0.00141143798828125,
				-18.900541305541992
			],
			"type":"VEC3"
		},
		{
			"bufferView":37,
			"componentType":5126,
			"count":23,
			"type":"VEC3"
		},
		{
			"bufferView":38,
			"componentType":5126,
			"count":23,
			"type":"VEC2"
		},
		{
			"bufferView":39,
			"componentType":5123,
			"count":63,
			"type":"SCALAR"
		},
		{
			"bufferView":40,
			"componentType":5126,
			"count":14195,
			"max":[
				42.3563346862793,
				21.64577293395996,
				18.980661392211914
			],
			"min":[
				-42.44130325317383,
				5.742345333099365,
				-18.94821548461914
			],
			"type":"VEC3"
		},
		{
			"bufferView":41,
			"componentType":5126,
			"count":14195,
			"type":"VEC3"
		},
		{
			"bufferView":42,
			"componentType":5126,
			"count":14195,
			"type":"VEC2"
		},
		{
			"bufferView":43,
			"componentType":5123,
			"count":21264,
			"type":"SCALAR"
		},
		{
			"bufferView":44,
			"componentType":5126,
			"count":1163,
			"max":[
				42.73641586303711,
				22.313581466674805,
				19.88920021057129
			],
			"min":[
				-13.882915496826172,
				0.0076062679290771484,
				-19.09000015258789
			],
			"type":"VEC3"
		},
		{
			"bufferView":45,
			"componentType":5126,
			"count":1163,
			"type":"VEC3"
		},
		{
			"bufferView":46,
			"componentType":5126,
			"count":1163,
			"type":"VEC2"
		},
		{
			"bufferView":47,
			"componentType":5123,
			"count":2640,
			"type":"SCALAR"
		},
		{
			"bufferView":48,
			"componentType":5126,
			"count":23315,
			"max":[
				30.076297760009766,
				21.77882194519043,
				8.404067993164062
			],
			"min":[
				-30.260892868041992,
				15.792479515075684,
				-8.48608112335205
			],
			"type":"VEC3"
		},
		{
			"bufferView":49,
			"componentType":5126,
			"count":23315,
			"type":"VEC3"
		},
		{
			"bufferView":50,
			"componentType":5126,
			"count":23315,
			"type":"VEC2"
		},
		{
			"bufferView":51,
			"componentType":5123,
			"count":69624,
			"type":"SCALAR"
		},
		{
			"bufferView":52,
			"componentType":5126,
			"count":38,
			"max":[
				1.6715259552001953,
				10.877679824829102,
				18.973827362060547
			],
			"min":[
				-1.7762577533721924,
				8.040323257446289,
				18.76143455505371
			],
			"type":"VEC3"
		},
		{
			"bufferView":53,
			"componentType":5126,
			"count":38,
			"type":"VEC3"
		},
		{
			"bufferView":54,
			"componentType":5126,
			"count":38,
			"type":"VEC2"
		},
		{
			"bufferView":55,
			"componentType":5123,
			"count":54,
			"type":"SCALAR"
		},
		{
			"bufferView":56,
			"componentType":5126,
			"count":12423,
			"max":[
				27.684192657470703,
				27.565034866333008,
				7.608124732971191
			],
			"min":[
				-27.811687469482422,
				8.605788230895996,
				-7.865607261657715
			],
			"type":"VEC3"
		},
		{
			"bufferView":57,
			"componentType":5126,
			"count":12423,
			"type":"VEC3"
		},
		{
			"bufferView":58,
			"componentType":5126,
			"count":12423,
			"type":"VEC2"
		},
		{
			"bufferView":59,
			"componentType":5123,
			"count":49488,
			"type":"SCALAR"
		},
		{
			"bufferView":60,
			"componentType":5126,
			"count":9977,
			"max":[
				22.152021408081055,
				16.225549697875977,
				8.94731616973877
			],
			"min":[
				-22.386043548583984,
				10.606112480163574,
				-8.945830345153809
			],
			"type":"VEC3"
		},
		{
			"bufferView":61,
			"componentType":5126,
			"count":9977,
			"type":"VEC3"
		},
		{
			"bufferView":62,
			"componentType":5126,
			"count":9977,
			"type":"VEC2"
		},
		{
			"bufferView":63,
			"componentType":5123,
			"count":49536,
			"type":"SCALAR"
		},
		{
			"bufferView":64,
			"componentType":5126,
			"count":9975,
			"max":[
				22.05571937561035,
				16.225549697875977,
				8.94731330871582
			],
			"min":[
				-22.48234748840332,
				10.606112480163574,
				-8.945830345153809
			],
			"type":"VEC3"
		},
		{
			"bufferView":65,
			"componentType":5126,
			"count":9975,
			"type":"VEC3"
		},
		{
			"bufferView":66,
			"componentType":5126,
			"count":9975,
			"type":"VEC2"
		},
		{
			"bufferView":67,
			"componentType":5123,
			"count":49536,
			"type":"SCALAR"
		},
		{
			"bufferView":68,
			"componentType":5126,
			"count":6643,
			"max":[
				10.717584609985352,
				16.225549697875977,
				8.947309494018555
			],
			"min":[
				-11.047906875610352,
				10.606112480163574,
				-8.945830345153809
			],
			"type":"VEC3"
		},
		{
			"bufferView":69,
			"componentType":5126,
			"count":6643,
			"type":"VEC3"
		},
		{
			"bufferView":70,
			"componentType":5126,
			"count":6643,
			"type":"VEC2"
		},
		{
			"bufferView":71,
			"componentType":5123,
			"count":33024,
			"type":"SCALAR"
		},
		{
			"bufferView":72,
			"componentType":5126,
			"count":7739,
			"max":[
				27.370267868041992,
				8.876333236694336,
				7.743607521057129
			],
			"min":[
				-15.99036979675293,
				0.06675046682357788,
				-8.037796974182129
			],
			"type":"VEC3"
		},
		{
			"bufferView":73,
			"componentType":5126,
			"count":7739,
			"type":"VEC3"
		},
		{
			"bufferView":74,
			"componentType":5126,
			"count":7739,
			"type":"VEC2"
		},
		{
			"bufferView":75,
			"componentType":5123,
			"count":43008,
			"type":"SCALAR"
		},
		{
			"bufferView":76,
			"componentType":5126,
			"count":10248,
			"max":[
				27.370267868041992,
				8.876333236694336,
				7.743607521057129
			],
			"min":[
				-27.4251708984375,
				0.06675046682357788,
				-8.037796974182129
			],
			"type":"VEC3"
		},
		{
			"bufferView":77,
			"componentType":5126,
			"count":10248,
			"type":"VEC3"
		},
		{
			"bufferView":78,
			"componentType":5126,
			"count":10248,
			"type":"VEC2"
		},
		{
			"bufferView":79,
			"componentType":5123,
			"count":56832,
			"type":"SCALAR"
		},
		{
			"bufferView":80,
			"componentType":5126,
			"count":7739,
			"max":[
				15.826196670532227,
				8.876333236694336,
				7.743607521057129
			],
			"min":[
				-27.4251708984375,
				0.06675046682357788,
				-7.851749420166016
			],
			"type":"VEC3"
		},
		{
			"bufferView":81,
			"componentType":5126,
			"count":7739,
			"type":"VEC3"
		},
		{
			"bufferView":82,
			"componentType":5126,
			"count":7739,
			"type":"VEC2"
		},
		{
			"bufferView":83,
			"componentType":5126,
			"count":72,
			"max":[
				17.85268783569336,
				6.7257843017578125,
				5.623211860656738
			],
			"min":[
				-18.078466415405273,
				4.22446870803833,
				-5.749482154846191
			],
			"type":"VEC3"
		},
		{
			"bufferView":84,
			"componentType":5126,
			"count":72,
			"type":"VEC3"
		},
		{
			"bufferView":85,
			"componentType":5126,
			"count":72,
			"type":"VEC2"
		},
		{
			"bufferView":86,
			"componentType":5123,
			"count":96,
			"type":"SCALAR"
		},
		{
			"bufferView":87,
			"componentType":5126,
			"count":11828,
			"max":[
				18.1396541595459,
				6.806326389312744,
				6.409507751464844
			],
			"min":[
				-18.36543083190918,
				3.1372408866882324,
				-6.535774230957031
			],
			"type":"VEC3"
		},
		{
			"bufferView":88,
			"componentType":5126,
			"count":11828,
			"type":"VEC3"
		},
		{
			"bufferView":89,
			"componentType":5126,
			"count":11828,
			"type":"VEC2"
		},
		{
			"bufferView":90,
			"componentType":5123,
			"count":59484,
			"type":"SCALAR"
		},
		{
			"bufferView":91,
			"componentType":5126,
			"count":5308,
			"max":[
				38.971923828125,
				4.202614784240723,
				15.957262992858887
			],
			"min":[
				-37.6755256652832,
				0.05482298135757446,
				-15.118134498596191
			],
			"type":"VEC3"
		},
		{
			"bufferView":92,
			"componentType":5126,
			"count":5308,
			"type":"VEC3"
		},
		{
			"bufferView":93,
			"componentType":5126,
			"count":5308,
			"type":"VEC2"
		},
		{
			"bufferView":94,
			"componentType":5123,
			"count":27552,
			"type":"SCALAR"
		},
		{
			"bufferView":95,
			"componentType":5126,
			"count":1732,
			"max":[
				42.224632263183594,
				8.289426803588867,
				2.450563907623291
			],
			"min":[
				-42.35224533081055,
				2.5550403594970703,
				-2.436598300933838
			],
			"type":"VEC3"
		},
		{
			"bufferView":96,
			"componentType":5126,
			"count":1732,
			"type":"VEC3"
		},
		{
			"bufferView":97,
			"componentType":5126,
			"count":1732,
			"type":"VEC2"
		},
		{
			"bufferView":98,
			"componentType":5123,
			"count":9126,
			"type":"SCALAR"
		},
		{
			"bufferView":99,
			"componentType":5126,
			"count":11990,
			"max":[
				57.76236343383789,
				44.418434143066406,
				35.41237258911133
			],
			"min":[
				-57.66135025024414,
				39.798831939697266,
				-35.57035446166992
			],
			"type":"VEC3"
		},
		{
			"bufferView":100,
			"componentType":5126,
			"count":11990,
			"type":"VEC3"
		},
		{
			"bufferView":101,
			"componentType":5126,
			"count":11990,
			"type":"VEC2"
		},
		{
			"bufferView":102,
			"componentType":5123,
			"count":43452,
			"type":"SCALAR"
		}
	],
	"bufferViews":[
		{
			"buffer":0,
			"byteLength":23808,
			"byteOffset":0,
			"target":34962
		},
		{
			"buffer":0,
			"byteLength":23808,
			"byteOffset":23808,
			"target":34962
		},
		{
			"buffer":0,
			"byteLength":15872,
			"byteOffset":47616,
			"target":34962
		},
		{
			"buffer":0,
			"byteLength":5760,
			"byteOffset":63488,
			"target":34963
		},
		{
			"buffer":0,
			"byteLength":289944,
			"byteOffset":69248,
			"target":34962
		},
		{
			"buffer":0,
			"byteLength":289944,
			"byteOffset":359192,
			"target":34962
		},
		{
			"buffer":0,
			"byteLength":193296,
			"byteOffset":649136,
			"target":34962
		},
		{
			"buffer":0,
			"byteLength":188616,
			"byteOffset":842432,
			"target":34963
		},
		{
			"buffer":0,
			"byteLength":47184,
			"byteOffset":1031048,
			"target":34962
		},
		{
			"buffer":0,
			"byteLength":47184,
			"byteOffset":1078232,
			"target":34962
		},
		{
			"buffer":0,
			"byteLength":31456,
			"byteOffset":1125416,
			"target":34962
		},
		{
			"buffer":0,
			"byteLength":20832,
			"byteOffset":1156872,
			"target":34963
		},
		{
			"buffer":0,
			"byteLength":118176,
			"byteOffset":1177704,
			"target":34962
		},
		{
			"buffer":0,
			"byteLength":118176,
			"byteOffset":1295880,
			"target":34962
		},
		{
			"buffer":0,
			"byteLength":78784,
			"byteOffset":1414056,
			"target":34962
		},
		{
			"buffer":0,
			"byteLength":106128,
			"byteOffset":1492840,
			"target":34963
		},
		{
			"buffer":0,
			"byteLength":27108,
			"byteOffset":1598968,
			"target":34962
		},
		{
			"buffer":0,
			"byteLength":27108,
			"byteOffset":1626076,
			"target":34962
		},
		{
			"buffer":0,
			"byteLength":18072,
			"byteOffset":1653184,
			"target":34962
		},
		{
			"buffer":0,
			"byteLength":24516,
			"byteOffset":1671256,
			"target":34963
		},
		{
			"buffer":0,
			"byteLength":13032,
			"byteOffset":1695772,
			"target":34962
		},
		{
			"buffer":0,
			"byteLength":13032,
			"byteOffset":1708804,
			"target":34962
		},
		{
			"buffer":0,
			"byteLength":8688,
			"byteOffset":1721836,
			"target":34962
		},
		{
			"buffer":0,
			"byteLength":4776,
			"byteOffset":1730524,
			"target":34963
		},
		{
			"buffer":0,
			"byteLength":136596,
			"byteOffset":1735300,
			"target":34962
		},
		{
			"buffer":0,
			"byteLength":136596,
			"byteOffset":1871896,
			"target":34962
		},
		{
			"buffer":0,
			"byteLength":91064,
			"byteOffset":2008492,
			"target":34962
		},
		{
			"buffer":0,
			"byteLength":61008,
			"byteOffset":2099556,
			"target":34963
		},
		{
			"buffer":0,
			"byteLength":60756,
			"byteOffset":2160564,
			"target":34962
		},
		{
			"buffer":0,
			"byteLength":60756,
			"byteOffset":2221320,
			"target":34962
		},
		{
			"buffer":0,
			"byteLength":40504,
			"byteOffset":2282076,
			"target":34962
		},
		{
			"buffer":0,
			"byteLength":35256,
			"byteOffset":2322580,
			"target":34963
		},
		{
			"buffer":0,
			"byteLength":42456,
			"byteOffset":2357836,
			"target":34962
		},
		{
			"buffer":0,
			"byteLength":42456,
			"byteOffset":2400292,
			"target":34962
		},
		{
			"buffer":0,
			"byteLength":28304,
			"byteOffset":2442748,
			"target":34962
		},
		{
			"buffer":0,
			"byteLength":16896,
			"byteOffset":2471052,
			"target":34963
		},
		{
			"buffer":0,
			"byteLength":276,
			"byteOffset":2487948,
			"target":34962
		},
		{
			"buffer":0,
			"byteLength":276,
			"byteOffset":2488224,
			"target":34962
		},
		{
			"buffer":0,
			"byteLength":184,
			"byteOffset":2488500,
			"target":34962
		},
		{
			"buffer":0,
			"byteLength":126,
			"byteOffset":2488684,
			"target":34963
		},
		{
			"buffer":0,
			"byteLength":170340,
			"byteOffset":2488812,
			"target":34962
		},
		{
			"buffer":0,
			"byteLength":170340,
			"byteOffset":2659152,
			"target":34962
		},
		{
			"buffer":0,
			"byteLength":113560,
			"byteOffset":2829492,
			"target":34962
		},
		{
			"buffer":0,
			"byteLength":42528,
			"byteOffset":2943052,
			"target":34963
		},
		{
			"buffer":0,
			"byteLength":13956,
			"byteOffset":2985580,
			"target":34962
		},
		{
			"buffer":0,
			"byteLength":13956,
			"byteOffset":2999536,
			"target":34962
		},
		{
			"buffer":0,
			"byteLength":9304,
			"byteOffset":3013492,
			"target":34962
		},
		{
			"buffer":0,
			"byteLength":5280,
			"byteOffset":3022796,
			"target":34963
		},
		{
			"buffer":0,
			"byteLength":279780,
			"byteOffset":3028076,
			"target":34962
		},
		{
			"buffer":0,
			"byteLength":279780,
			"byteOffset":3307856,
			"target":34962
		},
		{
			"buffer":0,
			"byteLength":186520,
			"byteOffset":3587636,
			"target":34962
		},
		{
			"buffer":0,
			"byteLength":139248,
			"byteOffset":3774156,
			"target":34963
		},
		{
			"buffer":0,
			"byteLength":456,
			"byteOffset":3913404,
			"target":34962
		},
		{
			"buffer":0,
			"byteLength":456,
			"byteOffset":3913860,
			"target":34962
		},
		{
			"buffer":0,
			"byteLength":304,
			"byteOffset":3914316,
			"target":34962
		},
		{
			"buffer":0,
			"byteLength":108,
			"byteOffset":3914620,
			"target":34963
		},
		{
			"buffer":0,
			"byteLength":149076,
			"byteOffset":3914728,
			"target":34962
		},
		{
			"buffer":0,
			"byteLength":149076,
			"byteOffset":4063804,
			"target":34962
		},
		{
			"buffer":0,
			"byteLength":99384,
			"byteOffset":4212880,
			"target":34962
		},
		{
			"buffer":0,
			"byteLength":98976,
			"byteOffset":4312264,
			"target":34963
		},
		{
			"buffer":0,
			"byteLength":119724,
			"byteOffset":4411240,
			"target":34962
		},
		{
			"buffer":0,
			"byteLength":119724,
			"byteOffset":4530964,
			"target":34962
		},
		{
			"buffer":0,
			"byteLength":79816,
			"byteOffset":4650688,
			"target":34962
		},
		{
			"buffer":0,
			"byteLength":99072,
			"byteOffset":4730504,
			"target":34963
		},
		{
			"buffer":0,
			"byteLength":119700,
			"byteOffset":4829576,
			"target":34962
		},
		{
			"buffer":0,
			"byteLength":119700,
			"byteOffset":4949276,
			"target":34962
		},
		{
			"buffer":0,
			"byteLength":79800,
			"byteOffset":5068976,
			"target":34962
		},
		{
			"buffer":0,
			"byteLength":99072,
			"byteOffset":5148776,
			"target":34963
		},
		{
			"buffer":0,
			"byteLength":79716,
			"byteOffset":5247848,
			"target":34962
		},
		{
			"buffer":0,
			"byteLength":79716,
			"byteOffset":5327564,
			"target":34962
		},
		{
			"buffer":0,
			"byteLength":53144,
			"byteOffset":5407280,
			"target":34962
		},
		{
			"buffer":0,
			"byteLength":66048,
			"byteOffset":5460424,
			"target":34963
		},
		{
			"buffer":0,
			"byteLength":92868,
			"byteOffset":5526472,
			"target":34962
		},
		{
			"buffer":0,
			"byteLength":92868,
			"byteOffset":5619340,
			"target":34962
		},
		{
			"buffer":0,
			"byteLength":61912,
			"byteOffset":5712208,
			"target":34962
		},
		{
			"buffer":0,
			"byteLength":86016,
			"byteOffset":5774120,
			"target":34963
		},
		{
			"buffer":0,
			"byteLength":122976,
			"byteOffset":5860136,
			"target":34962
		},
		{
			"buffer":0,
			"byteLength":122976,
			"byteOffset":5983112,
			"target":34962
		},
		{
			"buffer":0,
			"byteLength":81984,
			"byteOffset":6106088,
			"target":34962
		},
		{
			"buffer":0,
			"byteLength":113664,
			"byteOffset":6188072,
			"target":34963
		},
		{
			"buffer":0,
			"byteLength":92868,
			"byteOffset":6301736,
			"target":34962
		},
		{
			"buffer":0,
			"byteLength":92868,
			"byteOffset":6394604,
			"target":34962
		},
		{
			"buffer":0,
			"byteLength":61912,
			"byteOffset":6487472,
			"target":34962
		},
		{
			"buffer":0,
			"byteLength":864,
			"byteOffset":6549384,
			"target":34962
		},
		{
			"buffer":0,
			"byteLength":864,
			"byteOffset":6550248,
			"target":34962
		},
		{
			"buffer":0,
			"byteLength":576,
			"byteOffset":6551112,
			"target":34962
		},
		{
			"buffer":0,
			"byteLength":192,
			"byteOffset":6551688,
			"target":34963
		},
		{
			"buffer":0,
			"byteLength":141936,
			"byteOffset":6551880,
			"target":34962
		},
		{
			"buffer":0,
			"byteLength":141936,
			"byteOffset":6693816,
			"target":34962
		},
		{
			"buffer":0,
			"byteLength":94624,
			"byteOffset":6835752,
			"target":34962
		},
		{
			"buffer":0,
			"byteLength":118968,
			"byteOffset":6930376,
			"target":34963
		},
		{
			"buffer":0,
			"byteLength":63696,
			"byteOffset":7049344,
			"target":34962
		},
		{
			"buffer":0,
			"byteLength":63696,
			"byteOffset":7113040,
			"target":34962
		},
		{
			"buffer":0,
			"byteLength":42464,
			"byteOffset":7176736,
			"target":34962
		},
		{
			"buffer":0,
			"byteLength":55104,
			"byteOffset":7219200,
			"target":34963
		},
		{
			"buffer":0,
			"byteLength":20784,
			"byteOffset":7274304,
			"target":34962
		},
		{
			"buffer":0,
			"byteLength":20784,
			"byteOffset":7295088,
			"target":34962
		},
		{
			"buffer":0,
			"byteLength":13856,
			"byteOffset":7315872,
			"target":34962
		},
		{
			"buffer":0,
			"byteLength":18252,
			"byteOffset":7329728,
			"target":34963
		},
		{
			"buffer":0,
			"byteLength":143880,
			"byteOffset":7347980,
			"target":34962
		},
		{
			"buffer":0,
			"byteLength":143880,
			"byteOffset":7491860,
			"target":34962
		},
		{
			"buffer":0,
			"byteLength":95920,
			"byteOffset":7635740,
			"target":34962
		},
		{
			"buffer":0,
			"byteLength":86904,
			"byteOffset":7731660,
			"target":34963
		}
	],
	"samplers":[
		{
			"magFilter":9729,
			"minFilter":9987
		}
	],
	"buffers":[
		{
			"byteLength":7818564,
			"uri":"Sponza.bin"
		}
	]
}
